<svg width="38px" height="39px" viewBox="0 0 38 39" version="1.1" xmlns="http://www.w3.org/2000/svg" xmlns:xlink="http://www.w3.org/1999/xlink"><defs><linearGradient x1="50%" y1="3.25821893%" x2="50%" y2="98.9387645%" id="linearGradient-1"><stop stop-color="#0095FF" offset="0%"></stop><stop stop-color="#0079F2" offset="100%"></stop></linearGradient><path d="M18,0 C27.9411052,0 36,8.02366832 36,17.9213974 C36,27.819228 27.9411052,35.8427948 18,35.8427948 C8.05889484,35.8427948 0,27.819228 0,17.9213974 C0,8.02366832 8.05889484,0 18,0 Z M18,32.3842795 C26.0225904,32.3842795 32.5263158,25.9090655 32.5263158,17.9213479 C32.5263158,9.93372931 26.0225904,3.45851528 18,3.45851528 C9.97731015,3.45851528 3.47368421,9.93372931 3.47368421,17.9213479 C3.47368421,25.9090655 9.97731015,32.3842795 18,32.3842795 Z" id="path-2"></path><filter x="-8.3%" y="-5.6%" width="116.7%" height="116.7%" filterUnits="objectBoundingBox" id="filter-3"><feMorphology radius="0.5" operator="dilate" in="SourceAlpha" result="shadowSpreadOuter1"></feMorphology><feOffset dx="0" dy="0" in="shadowSpreadOuter1" result="shadowOffsetOuter1"></feOffset><feColorMatrix values="0 0 0 0 0 0 0 0 0 0 0 0 0 0 0 0 0 0 0.300611413 0" type="matrix" in="shadowOffsetOuter1" result="shadowMatrixOuter1"></feColorMatrix><feOffset dx="0" dy="1" in="SourceAlpha" result="shadowOffsetOuter2"></feOffset><feGaussianBlur stdDeviation="0.5" in="shadowOffsetOuter2" result="shadowBlurOuter2"></feGaussianBlur><feColorMatrix values="0 0 0 0 0 0 0 0 0 0 0 0 0 0 0 0 0 0 0.25 0" type="matrix" in="shadowBlurOuter2" result="shadowMatrixOuter2"></feColorMatrix><feMerge><feMergeNode in="shadowMatrixOuter1"></feMergeNode><feMergeNode in="shadowMatrixOuter2"></feMergeNode></feMerge></filter><linearGradient x1="50%" y1="0%" x2="50%" y2="100%" id="linearGradient-4"><stop stop-color="#000000" offset="0%"></stop><stop stop-color="#000000" stop-opacity="0" offset="100%"></stop></linearGradient><path d="M18.0000504,6.91703057 C24.1042702,6.91703057 29.0526316,11.8438163 29.0526316,17.9213974 C29.0526316,23.9989784 24.1042702,28.9257642 18.0000504,28.9257642 C11.8958306,28.9257642 6.94736842,23.9989784 6.94736842,17.9213974 C6.94736842,11.8438163 11.8958306,6.91703057 18.0000504,6.91703057 L18.0000504,6.91703057 Z" id="path-5"></path><path d="M17.9999485,12.8908297 C20.7904193,12.8908297 23.0526316,15.1430133 23.0526316,17.9213974 C23.0526316,20.6996789 20.7904193,22.9519651 17.9999485,22.9519651 C15.2094776,22.9519651 12.9473684,20.6996789 12.9473684,17.9213974 C12.9473684,15.1430133 15.2094776,12.8908297 17.9999485,12.8908297 L17.9999485,12.8908297 Z" id="path-6"></path><filter x="-34.6%" y="-34.8%" width="169.3%" height="169.6%" filterUnits="objectBoundingBox" id="filter-7"><feGaussianBlur stdDeviation="1.5" in="SourceAlpha" result="shadowBlurInner1"></feGaussianBlur><feOffset dx="0" dy="3" in="shadowBlurInner1" result="shadowOffsetInner1"></feOffset><feComposite in="shadowOffsetInner1" in2="SourceAlpha" operator="arithmetic" k2="-1" k3="1" result="shadowInnerInner1"></feComposite><feColorMatrix values="0 0 0 0 0 0 0 0 0 0 0 0 0 0 0 0 0 0 0.07 0" type="matrix" in="shadowInnerInner1" result="shadowMatrixInner1"></feColorMatrix><feMorphology radius="1" operator="erode" in="SourceAlpha" result="shadowSpreadInner2"></feMorphology><feOffset dx="0" dy="1" in="shadowSpreadInner2" result="shadowOffsetInner2"></feOffset><feComposite in="shadowOffsetInner2" in2="SourceAlpha" operator="arithmetic" k2="-1" k3="1" result="shadowInnerInner2"></feComposite><feColorMatrix values="0 0 0 0 0 0 0 0 0 0 0 0 0 0 0 0 0 0 0.07 0" type="matrix" in="shadowInnerInner2" result="shadowMatrixInner2"></feColorMatrix><feMerge><feMergeNode in="shadowMatrixInner1"></feMergeNode><feMergeNode in="shadowMatrixInner2"></feMergeNode></feMerge></filter><path d="M15.4736842,14.6841052 L15.4736842,9.90251435 C15.4736842,9.81647421 15.5434335,9.74672489 15.6294737,9.74672489 L20.3705263,9.74672487 C20.4565665,9.74672487 20.5263158,9.81647419 20.5263158,9.90251433 C20.5263158,9.90251434 20.5263158,9.90251434 20.5263158,9.90251435 L20.5263147,18.6704923 C20.5263147,18.7111372 20.5104301,18.7501728 20.4820506,18.7792694 L19.4808053,19.8058107 C19.4217864,19.8663207 19.4217864,19.962855 19.4808053,20.023365 L20.4820506,21.0499064 C20.5104301,21.0790029 20.5263147,21.1180385 20.5263147,21.1586834 L20.5263158,25.9402806 C20.5263158,26.0263208 20.4565665,26.0960701 20.3705264,26.0960701 C20.3705264,26.0960701 20.3705263,26.0960701 20.3705263,26.0960701 L15.6294737,26.0960701 C15.5434335,26.0960701 15.4736842,26.0263208 15.4736842,25.9402806 L15.4736842,17.1722964 C15.4736842,17.1316515 15.4895688,17.0926159 15.5179483,17.0635193 L16.5191936,16.0369779 C16.5782125,15.976468 16.5782125,15.8799337 16.5191936,15.8194237 L15.5179483,14.7928823 C15.4895688,14.7637857 15.4736842,14.7247502 15.4736842,14.6841052 Z" id="path-8"></path><filter x="-9.9%" y="-3.1%" width="119.8%" height="112.2%" filterUnits="objectBoundingBox" id="filter-9"><feOffset dx="0" dy="1" in="SourceAlpha" result="shadowOffsetOuter1"></feOffset><feColorMatrix values="0 0 0 0 1 0 0 0 0 1 0 0 0 0 1 0 0 0 1 0" type="matrix" in="shadowOffsetOuter1"></feColorMatrix></filter><filter x="-69.3%" y="-21.4%" width="238.5%" height="148.9%" filterUnits="objectBoundingBox" id="filter-10"><feMorphology radius="1" operator="erode" in="SourceAlpha" result="shadowSpreadInner1"></feMorphology><feGaussianBlur stdDeviation="2.5" in="shadowSpreadInner1" result="shadowBlurInner1"></feGaussianBlur><feOffset dx="0" dy="1" in="shadowBlurInner1" result="shadowOffsetInner1"></feOffset><feComposite in="shadowOffsetInner1" in2="SourceAlpha" operator="arithmetic" k2="-1" k3="1" result="shadowInnerInner1"></feComposite><feColorMatrix values="0 0 0 0 0 0 0 0 0 0 0 0 0 0 0 0 0 0 0.6 0" type="matrix" in="shadowInnerInner1" result="shadowMatrixInner1"></feColorMatrix><feMorphology radius="1" operator="erode" in="SourceAlpha" result="shadowSpreadInner2"></feMorphology><feOffset dx="0" dy="0" in="shadowSpreadInner2" result="shadowOffsetInner2"></feOffset><feComposite in="shadowOffsetInner2" in2="SourceAlpha" operator="arithmetic" k2="-1" k3="1" result="shadowInnerInner2"></feComposite><feColorMatrix values="0 0 0 0 0 0 0 0 0 0 0 0 0 0 0 0 0 0 0.6 0" type="matrix" in="shadowInnerInner2" result="shadowMatrixInner2"></feColorMatrix><feMerge><feMergeNode in="shadowMatrixInner1"></feMergeNode><feMergeNode in="shadowMatrixInner2"></feMergeNode></feMerge></filter></defs><g id="Page-1" stroke="none" stroke-width="1" fill="none" fill-rule="evenodd"><g id="Normal" transform="translate(-228.000000, -540.000000)"><g id="Group-4" transform="translate(229.000000, 541.000000)"><g id="Group-3"><path d="M32.8295596,18.0641853 C32.8295596,26.2188858 26.1839999,32.8295596 17.9863372,32.8295596 C9.78867445,32.8295596 3.14311478,26.2188858 3.14311478,18.0641853 C3.14311478,9.9094847 9.78867445,3.29890424 17.9863372,3.29890424 C26.1839999,3.29890424 32.8295596,9.9094847 32.8295596,18.0641853 Z" id="new-color-gradient" fill="url(#linearGradient-1)"></path><g id="chrome"><use fill="black" fill-opacity="1" filter="url(#filter-3)" xlink:href="#path-2"></use><use fill="#FFFFFF" fill-rule="evenodd" xlink:href="#path-2"></use></g><path d="M0.734538028,12.8908297 C0.460363431,14.1226946 0.315789474,15.403087 0.315789474,16.7170991 C0.315789474,26.4411694 8.23328021,34.324086 18,34.324086 C27.7667198,34.324086 35.6842105,26.4411694 35.6842105,16.7170991 C35.6842105,15.403087 35.5396366,14.1226946 35.265462,12.8908297 C35.7434603,14.5025252 36,16.2088049 36,17.974741 C36,27.8724555 27.9411255,35.8961384 18,35.8961384 C8.0588745,35.8961384 0,27.8724555 0,17.974741 C0,16.2088049 0.256539658,14.5025252 0.734538028,12.8908297 Z" id="chrome-bottom-shadow" fill-opacity="0.03" fill="#000000"></path><path d="M6.46844876,28.3456437 C3.82738451,25.5354559 2.21052632,21.7592156 2.21052632,17.6069869 C2.21052632,8.92478123 9.27971448,1.88646288 18,1.88646288 C26.7202855,1.88646288 33.7894737,8.92478123 33.7894737,17.6069869 C33.7894737,21.7592156 32.1726155,25.5354559 29.5315512,28.3456437 C31.7926771,25.7094797 33.1578947,22.2885847 33.1578947,18.5502183 C33.1578947,10.2153009 26.3714741,3.45851528 18,3.45851528 C9.6285259,3.45851528 2.84210526,10.2153009 2.84210526,18.5502183 C2.84210526,22.2885847 4.20732286,25.7094797 6.46844876,28.3456437 Z" id="chrome-top-shadow" fill-opacity="0.07" fill="#000000"></path><g id="surround"><use fill="#FFFFFF" fill-rule="evenodd" xlink:href="#path-5"></use><use fill-opacity="0.0700000003" fill="url(#linearGradient-4)" fill-rule="evenodd" xlink:href="#path-5"></use><path stroke-opacity="0.25" stroke="#000000" stroke-width="0.5" d="M18.0000504,6.66703057 C24.2420937,6.66703057 29.3026316,11.7054963 29.3026316,17.9213974 C29.3026316,24.1372985 24.2420937,29.1757642 18.0000504,29.1757642 C11.7579886,29.1757642 6.69736842,24.13728 6.69736842,17.9213974 C6.69736842,11.7055148 11.7579886,6.66703057 18.0000504,6.66703057 Z"></path></g><g id="bevel"><use fill-opacity="0.03" fill="#000000" fill-rule="evenodd" xlink:href="#path-6"></use><use fill="black" fill-opacity="1" filter="url(#filter-7)" xlink:href="#path-6"></use><path stroke-opacity="0.6" stroke="#FFFFFF" stroke-width="0.5" d="M17.9999485,12.6408297 C20.9282887,12.6408297 23.3026316,15.0047389 23.3026316,17.9213974 C23.3026316,20.8379879 20.9282539,23.2019651 17.9999485,23.2019651 C15.0716611,23.2019651 12.6973684,20.8380059 12.6973684,17.9213974 C12.6973684,15.0047209 15.0716263,12.6408297 17.9999485,12.6408297 Z"></path></g><g id="keyhole"><use fill="black" fill-opacity="1" filter="url(#filter-9)" xlink:href="#path-8"></use><use fill="#606B73" fill-rule="evenodd" xlink:href="#path-8"></use><use fill="black" fill-opacity="1" filter="url(#filter-10)" xlink:href="#path-8"></use></g></g></g></g></g></svg>